# xmcd
#
# Track frame offsets:
#	150
#	16172
#	48972
#
# Disc length: 918 seconds
#
# Revision: 1
# Processed by: cddbd v1.5PL3 Copyright (c) Steve Scherf et al.
# Submitted via: audiograbber 1.83.01
#
DISCID=17039403
DTITLE=De Funk feat. F45 - Pleasure Love [CD2)
DYEAR=1999
DGENRE=Pop
TTITLE0=Pleasure Love (Cosmack Radio Edit)
TTITLE1=Pleasure Love (Cosmack Club Mix)
TTITLE2=Be Together
EXTD=
EXTT0=
EXTT1=
EXTT2=
PLAYORDER=
